<svg id="visual" viewBox="0 0 900 200" width="900" height="200" xmlns="http://www.w3.org/2000/svg" xmlns:xlink="http://www.w3.org/1999/xlink" version="1.1"><rect x="0" y="0" width="900" height="200" fill="#A7BDE4"></rect><path d="M0 129L16.7 126.7C33.3 124.3 66.7 119.7 100 122.7C133.3 125.7 166.7 136.3 200 136.3C233.3 136.3 266.7 125.7 300 124.5C333.3 123.3 366.7 131.7 400 132C433.3 132.3 466.7 124.7 500 117C533.3 109.3 566.7 101.7 600 102.8C633.3 104 666.7 114 700 116.8C733.3 119.7 766.7 115.3 800 115.2C833.3 115 866.7 119 883.3 121L900 123L900 0L883.3 0C866.7 0 833.3 0 800 0C766.7 0 733.3 0 700 0C666.7 0 633.3 0 600 0C566.7 0 533.3 0 500 0C466.7 0 433.3 0 400 0C366.7 0 333.3 0 300 0C266.7 0 233.3 0 200 0C166.7 0 133.3 0 100 0C66.7 0 33.3 0 16.7 0L0 0Z" fill="#a7bde4"></path><path d="M0 123L16.7 118.8C33.3 114.7 66.7 106.3 100 103.2C133.3 100 166.7 102 200 103.8C233.3 105.7 266.7 107.3 300 110C333.3 112.7 366.7 116.3 400 115.3C433.3 114.3 466.7 108.7 500 106.8C533.3 105 566.7 107 600 102.8C633.3 98.7 666.7 88.3 700 91C733.3 93.7 766.7 109.3 800 114.7C833.3 120 866.7 115 883.3 112.5L900 110L900 0L883.3 0C866.7 0 833.3 0 800 0C766.7 0 733.3 0 700 0C666.7 0 633.3 0 600 0C566.7 0 533.3 0 500 0C466.7 0 433.3 0 400 0C366.7 0 333.3 0 300 0C266.7 0 233.3 0 200 0C166.7 0 133.3 0 100 0C66.7 0 33.3 0 16.7 0L0 0Z" fill="#889dc6"></path><path d="M0 90L16.7 90.7C33.3 91.3 66.7 92.7 100 94.5C133.3 96.3 166.7 98.7 200 99.2C233.3 99.7 266.7 98.3 300 92.7C333.3 87 366.7 77 400 78.5C433.3 80 466.7 93 500 92.5C533.3 92 566.7 78 600 75C633.3 72 666.7 80 700 82.8C733.3 85.7 766.7 83.3 800 82.5C833.3 81.7 866.7 82.3 883.3 82.7L900 83L900 0L883.3 0C866.7 0 833.3 0 800 0C766.7 0 733.3 0 700 0C666.7 0 633.3 0 600 0C566.7 0 533.3 0 500 0C466.7 0 433.3 0 400 0C366.7 0 333.3 0 300 0C266.7 0 233.3 0 200 0C166.7 0 133.3 0 100 0C66.7 0 33.3 0 16.7 0L0 0Z" fill="#6b7da8"></path><path d="M0 49L16.7 52.3C33.3 55.7 66.7 62.3 100 67.5C133.3 72.7 166.7 76.3 200 76.2C233.3 76 266.7 72 300 71C333.3 70 366.7 72 400 72.5C433.3 73 466.7 72 500 68.5C533.3 65 566.7 59 600 58.8C633.3 58.7 666.7 64.3 700 68.8C733.3 73.3 766.7 76.7 800 76C833.3 75.3 866.7 70.7 883.3 68.3L900 66L900 0L883.3 0C866.7 0 833.3 0 800 0C766.7 0 733.3 0 700 0C666.7 0 633.3 0 600 0C566.7 0 533.3 0 500 0C466.7 0 433.3 0 400 0C366.7 0 333.3 0 300 0C266.7 0 233.3 0 200 0C166.7 0 133.3 0 100 0C66.7 0 33.3 0 16.7 0L0 0Z" fill="#4f5f8c"></path><path d="M0 34L16.7 36.7C33.3 39.3 66.7 44.7 100 49C133.3 53.3 166.7 56.7 200 54.8C233.3 53 266.7 46 300 42.2C333.3 38.3 366.7 37.7 400 41C433.3 44.3 466.7 51.7 500 53.7C533.3 55.7 566.7 52.3 600 48.7C633.3 45 666.7 41 700 39.7C733.3 38.3 766.7 39.7 800 42.5C833.3 45.3 866.7 49.7 883.3 51.8L900 54L900 0L883.3 0C866.7 0 833.3 0 800 0C766.7 0 733.3 0 700 0C666.7 0 633.3 0 600 0C566.7 0 533.3 0 500 0C466.7 0 433.3 0 400 0C366.7 0 333.3 0 300 0C266.7 0 233.3 0 200 0C166.7 0 133.3 0 100 0C66.7 0 33.3 0 16.7 0L0 0Z" fill="#35426f"></path><path d="M0 32L16.7 32C33.3 32 66.7 32 100 29.8C133.3 27.7 166.7 23.3 200 24C233.3 24.7 266.7 30.3 300 32.8C333.3 35.3 366.7 34.7 400 32.3C433.3 30 466.7 26 500 25.7C533.3 25.3 566.7 28.7 600 29.2C633.3 29.7 666.7 27.3 700 25.2C733.3 23 766.7 21 800 20.8C833.3 20.7 866.7 22.3 883.3 23.2L900 24L900 0L883.3 0C866.7 0 833.3 0 800 0C766.7 0 733.3 0 700 0C666.7 0 633.3 0 600 0C566.7 0 533.3 0 500 0C466.7 0 433.3 0 400 0C366.7 0 333.3 0 300 0C266.7 0 233.3 0 200 0C166.7 0 133.3 0 100 0C66.7 0 33.3 0 16.7 0L0 0Z" fill="#1a2754"></path></svg>